<mxfile host="Electron" modified="2025-07-03T04:57:35.162Z" agent="Mozilla/5.0 (Windows NT 10.0; Win64; x64) AppleWebKit/537.36 (KHTML, like Gecko) draw.io/24.2.5 Chrome/120.0.6099.109 Electron/28.1.0 Safari/537.36" etag="AcVl9KIgLNml44h1_MVi" version="24.2.5" type="device">
  <diagram id="C5RBs43oDa-KdzZeNtuy" name="Page-1">
    <mxGraphModel dx="1897" dy="965" grid="1" gridSize="10" guides="1" tooltips="1" connect="1" arrows="1" fold="1" page="1" pageScale="1" pageWidth="1169" pageHeight="827" math="0" shadow="0">
      <root>
        <mxCell id="WIyWlLk6GJQsqaUBKTNV-0" />
        <mxCell id="WIyWlLk6GJQsqaUBKTNV-1" parent="WIyWlLk6GJQsqaUBKTNV-0" />
        <mxCell id="_iyFBNT7TmP0TgUlfEgI-44" style="edgeStyle=orthogonalEdgeStyle;rounded=0;orthogonalLoop=1;jettySize=auto;html=1;exitX=1;exitY=0.5;exitDx=0;exitDy=0;entryX=0;entryY=0.5;entryDx=0;entryDy=0;" edge="1" parent="WIyWlLk6GJQsqaUBKTNV-1" source="_iyFBNT7TmP0TgUlfEgI-0" target="_iyFBNT7TmP0TgUlfEgI-42">
          <mxGeometry relative="1" as="geometry" />
        </mxCell>
        <mxCell id="_iyFBNT7TmP0TgUlfEgI-0" value="&lt;div style=&quot;color: rgb(204, 204, 204); background-color: rgb(31, 31, 31); font-family: Consolas, &amp;quot;Courier New&amp;quot;, monospace; font-size: 14px; line-height: 19px; white-space: pre;&quot;&gt;&lt;span style=&quot;color: #4ec9b0;&quot;&gt;at&lt;/span&gt;::&lt;span style=&quot;color: #4ec9b0;&quot;&gt;native&lt;/span&gt;::&lt;span style=&quot;color: #4ec9b0;&quot;&gt;structured_heaviside_out&lt;/span&gt;&lt;/div&gt;&lt;hr size=&quot;1&quot; style=&quot;border-style:solid;&quot;&gt;&lt;div style=&quot;color: rgb(204, 204, 204); background-color: rgb(31, 31, 31); font-family: Consolas, &amp;quot;Courier New&amp;quot;, monospace; font-size: 14px; line-height: 19px; white-space: pre;&quot;&gt;&lt;span style=&quot;color: #569cd6;&quot;&gt;void&lt;/span&gt; &lt;span style=&quot;color: #dcdcaa;&quot;&gt;impl&lt;/span&gt;(&lt;span style=&quot;color: #569cd6;&quot;&gt;const&lt;/span&gt; &lt;span style=&quot;color: #4ec9b0;&quot;&gt;at&lt;/span&gt;::&lt;span style=&quot;color: #4ec9b0;&quot;&gt;Tensor&lt;/span&gt; &lt;span style=&quot;color: #569cd6;&quot;&gt;&amp;amp;&lt;/span&gt; &lt;span style=&quot;color: #9cdcfe;&quot;&gt;self&lt;/span&gt;,&lt;/div&gt;&lt;div style=&quot;color: rgb(204, 204, 204); background-color: rgb(31, 31, 31); font-family: Consolas, &amp;quot;Courier New&amp;quot;, monospace; font-size: 14px; line-height: 19px; white-space: pre;&quot;&gt;  &lt;span style=&quot;color: #569cd6;&quot;&gt;const&lt;/span&gt; &lt;span style=&quot;color: #4ec9b0;&quot;&gt;at&lt;/span&gt;::&lt;span style=&quot;color: #4ec9b0;&quot;&gt;Tensor&lt;/span&gt; &lt;span style=&quot;color: #569cd6;&quot;&gt;&amp;amp;&lt;/span&gt; &lt;span style=&quot;color: #9cdcfe;&quot;&gt;values&lt;/span&gt;,&lt;/div&gt;&lt;div style=&quot;color: rgb(204, 204, 204); background-color: rgb(31, 31, 31); font-family: Consolas, &amp;quot;Courier New&amp;quot;, monospace; font-size: 14px; line-height: 19px; white-space: pre;&quot;&gt;  &lt;span style=&quot;color: #569cd6;&quot;&gt;const&lt;/span&gt; &lt;span style=&quot;color: #4ec9b0;&quot;&gt;at&lt;/span&gt;::&lt;span style=&quot;color: #4ec9b0;&quot;&gt;Tensor&lt;/span&gt; &lt;span style=&quot;color: #569cd6;&quot;&gt;&amp;amp;&lt;/span&gt; &lt;span style=&quot;color: #9cdcfe;&quot;&gt;out&lt;/span&gt;);&lt;/div&gt;" style="verticalAlign=top;align=left;overflow=fill;html=1;whiteSpace=wrap;" vertex="1" parent="WIyWlLk6GJQsqaUBKTNV-1">
          <mxGeometry x="498" y="341" width="290" height="90" as="geometry" />
        </mxCell>
        <mxCell id="_iyFBNT7TmP0TgUlfEgI-1" value="&lt;div style=&quot;color: #cccccc;background-color: #1f1f1f;font-family: Consolas, &#39;Courier New&#39;, monospace;font-weight: normal;font-size: 14px;line-height: 19px;white-space: pre;&quot;&gt;&lt;div&gt;&lt;span style=&quot;color: #4ec9b0;&quot;&gt;at&lt;/span&gt;&lt;span style=&quot;color: #cccccc;&quot;&gt;::&lt;/span&gt;&lt;span style=&quot;color: #4ec9b0;&quot;&gt;Tensor&lt;/span&gt;&lt;span style=&quot;color: #cccccc;&quot;&gt; &lt;/span&gt;&lt;/div&gt;&lt;div&gt;&lt;span style=&quot;color: #dcdcaa;&quot;&gt;wrapper_PrivateUse1_heaviside&lt;/span&gt;&lt;span style=&quot;color: #cccccc;&quot;&gt;(&lt;/span&gt;&lt;/div&gt;&lt;div&gt;&lt;span style=&quot;color: #569cd6;&quot;&gt;const&lt;/span&gt;&lt;span style=&quot;color: #cccccc;&quot;&gt; &lt;/span&gt;&lt;span style=&quot;color: #4ec9b0;&quot;&gt;at&lt;/span&gt;&lt;span style=&quot;color: #cccccc;&quot;&gt;::&lt;/span&gt;&lt;span style=&quot;color: #4ec9b0;&quot;&gt;Tensor&lt;/span&gt;&lt;span style=&quot;color: #cccccc;&quot;&gt; &lt;/span&gt;&lt;span style=&quot;color: #569cd6;&quot;&gt;&amp;amp;&lt;/span&gt;&lt;span style=&quot;color: #cccccc;&quot;&gt; &lt;/span&gt;&lt;span style=&quot;color: #9cdcfe;&quot;&gt;self&lt;/span&gt;&lt;span style=&quot;color: #cccccc;&quot;&gt;, &lt;/span&gt;&lt;/div&gt;&lt;div&gt;&lt;span style=&quot;color: #569cd6;&quot;&gt;const&lt;/span&gt;&lt;span style=&quot;color: #cccccc;&quot;&gt; &lt;/span&gt;&lt;span style=&quot;color: #4ec9b0;&quot;&gt;at&lt;/span&gt;&lt;span style=&quot;color: #cccccc;&quot;&gt;::&lt;/span&gt;&lt;span style=&quot;color: #4ec9b0;&quot;&gt;Tensor&lt;/span&gt;&lt;span style=&quot;color: #cccccc;&quot;&gt; &lt;/span&gt;&lt;span style=&quot;color: #569cd6;&quot;&gt;&amp;amp;&lt;/span&gt;&lt;span style=&quot;color: #cccccc;&quot;&gt; &lt;/span&gt;&lt;span style=&quot;color: #9cdcfe;&quot;&gt;values&lt;/span&gt;&lt;span style=&quot;color: #cccccc;&quot;&gt;)&lt;/span&gt;&lt;/div&gt;&lt;/div&gt;" style="text;whiteSpace=wrap;html=1;" vertex="1" parent="WIyWlLk6GJQsqaUBKTNV-1">
          <mxGeometry x="208" y="672" width="240" height="90" as="geometry" />
        </mxCell>
        <mxCell id="_iyFBNT7TmP0TgUlfEgI-3" value="&lt;div style=&quot;color: rgb(204, 204, 204); background-color: rgb(31, 31, 31); font-family: Consolas, &amp;quot;Courier New&amp;quot;, monospace; font-size: 14px; line-height: 19px; white-space: pre;&quot;&gt;&lt;span style=&quot;color: rgb(78, 201, 176);&quot;&gt;at::&lt;/span&gt;&lt;span style=&quot;color: rgb(106, 153, 85);&quot;&gt;anonymous::&lt;/span&gt;&lt;/div&gt;&lt;div style=&quot;color: rgb(204, 204, 204); background-color: rgb(31, 31, 31); font-family: Consolas, &amp;quot;Courier New&amp;quot;, monospace; font-size: 14px; line-height: 19px; white-space: pre;&quot;&gt;&lt;span style=&quot;color: rgb(78, 201, 176);&quot;&gt;structured_heaviside_out_inplace&lt;/span&gt; &lt;/div&gt;&lt;hr size=&quot;1&quot; style=&quot;border-style:solid;&quot;&gt;&lt;p style=&quot;margin:0px;margin-left:4px;&quot;&gt;+ field: Type&lt;/p&gt;&lt;hr size=&quot;1&quot; style=&quot;border-style:solid;&quot;&gt;&lt;p style=&quot;margin:0px;margin-left:4px;&quot;&gt;+ method(): Type&lt;/p&gt;" style="verticalAlign=top;align=left;overflow=fill;html=1;whiteSpace=wrap;" vertex="1" parent="WIyWlLk6GJQsqaUBKTNV-1">
          <mxGeometry x="828" y="503" width="300" height="90" as="geometry" />
        </mxCell>
        <mxCell id="_iyFBNT7TmP0TgUlfEgI-4" value="&lt;div style=&quot;color: rgb(204, 204, 204); background-color: rgb(31, 31, 31); font-family: Consolas, &amp;quot;Courier New&amp;quot;, monospace; font-size: 14px; line-height: 19px; white-space: pre;&quot;&gt;&lt;span style=&quot;background-color: initial; color: rgb(78, 201, 176);&quot;&gt;at::&lt;/span&gt;&lt;span style=&quot;background-color: initial; color: rgb(106, 153, 85);&quot;&gt;anonymous::&lt;/span&gt;&lt;/div&gt;&lt;div style=&quot;color: rgb(204, 204, 204); background-color: rgb(31, 31, 31); font-family: Consolas, &amp;quot;Courier New&amp;quot;, monospace; font-size: 14px; line-height: 19px; white-space: pre;&quot;&gt;&lt;span style=&quot;color: rgb(78, 201, 176);&quot;&gt;structured_heaviside_out_out&lt;/span&gt; &lt;/div&gt;&lt;hr size=&quot;1&quot; style=&quot;border-style:solid;&quot;&gt;&lt;p style=&quot;margin:0px;margin-left:4px;&quot;&gt;+ field: Type&lt;/p&gt;&lt;hr size=&quot;1&quot; style=&quot;border-style:solid;&quot;&gt;&lt;p style=&quot;margin:0px;margin-left:4px;&quot;&gt;+ method(): Type&lt;/p&gt;" style="verticalAlign=top;align=left;overflow=fill;html=1;whiteSpace=wrap;" vertex="1" parent="WIyWlLk6GJQsqaUBKTNV-1">
          <mxGeometry x="528" y="503" width="230" height="90" as="geometry" />
        </mxCell>
        <mxCell id="_iyFBNT7TmP0TgUlfEgI-5" value="&lt;div style=&quot;color: rgb(204, 204, 204); background-color: rgb(31, 31, 31); font-family: Consolas, &amp;quot;Courier New&amp;quot;, monospace; font-size: 14px; line-height: 19px; white-space: pre;&quot;&gt;&lt;span style=&quot;background-color: initial; color: rgb(78, 201, 176);&quot;&gt;at::&lt;/span&gt;&lt;span style=&quot;background-color: initial; color: rgb(106, 153, 85);&quot;&gt;anonymous::&lt;/span&gt;&lt;/div&gt;&lt;div style=&quot;color: rgb(204, 204, 204); background-color: rgb(31, 31, 31); font-family: Consolas, &amp;quot;Courier New&amp;quot;, monospace; font-size: 14px; line-height: 19px; white-space: pre;&quot;&gt;&lt;span style=&quot;color: rgb(78, 201, 176);&quot;&gt;structured_heaviside_out_functional&lt;/span&gt; &lt;/div&gt;&lt;hr size=&quot;1&quot; style=&quot;border-style:solid;&quot;&gt;&lt;p style=&quot;margin:0px;margin-left:4px;&quot;&gt;+ field: Type&lt;/p&gt;&lt;hr size=&quot;1&quot; style=&quot;border-style:solid;&quot;&gt;&lt;p style=&quot;margin:0px;margin-left:4px;&quot;&gt;+ method(): Type&lt;/p&gt;" style="verticalAlign=top;align=left;overflow=fill;html=1;whiteSpace=wrap;" vertex="1" parent="WIyWlLk6GJQsqaUBKTNV-1">
          <mxGeometry x="188" y="503" width="280" height="90" as="geometry" />
        </mxCell>
        <mxCell id="_iyFBNT7TmP0TgUlfEgI-8" value="&lt;div style=&quot;color: #cccccc;background-color: #1f1f1f;font-family: Consolas, &#39;Courier New&#39;, monospace;font-weight: normal;font-size: 14px;line-height: 19px;white-space: pre;&quot;&gt;&lt;div&gt;&lt;span style=&quot;color: #4ec9b0;&quot;&gt;at&lt;/span&gt;&lt;span style=&quot;color: #cccccc;&quot;&gt;::&lt;/span&gt;&lt;span style=&quot;color: #4ec9b0;&quot;&gt;Tensor&lt;/span&gt;&lt;span style=&quot;color: #cccccc;&quot;&gt; &lt;/span&gt;&lt;span style=&quot;color: #569cd6;&quot;&gt;&amp;amp;&lt;/span&gt;&lt;span style=&quot;color: #cccccc;&quot;&gt; &lt;/span&gt;&lt;/div&gt;&lt;div&gt;&lt;span style=&quot;color: #dcdcaa;&quot;&gt;wrapper_PrivateUse1_heaviside_&lt;/span&gt;&lt;span style=&quot;color: #cccccc;&quot;&gt;(&lt;/span&gt;&lt;/div&gt;&lt;div&gt;&lt;span style=&quot;color: #4ec9b0;&quot;&gt;at&lt;/span&gt;&lt;span style=&quot;color: #cccccc;&quot;&gt;::&lt;/span&gt;&lt;span style=&quot;color: #4ec9b0;&quot;&gt;Tensor&lt;/span&gt;&lt;span style=&quot;color: #cccccc;&quot;&gt; &lt;/span&gt;&lt;span style=&quot;color: #569cd6;&quot;&gt;&amp;amp;&lt;/span&gt;&lt;span style=&quot;color: #cccccc;&quot;&gt; &lt;/span&gt;&lt;span style=&quot;color: #9cdcfe;&quot;&gt;self&lt;/span&gt;&lt;span style=&quot;color: #cccccc;&quot;&gt;,&lt;/span&gt;&lt;/div&gt;&lt;div&gt;&lt;span style=&quot;color: #569cd6;&quot;&gt;const&lt;/span&gt;&lt;span style=&quot;color: #cccccc;&quot;&gt; &lt;/span&gt;&lt;span style=&quot;color: #4ec9b0;&quot;&gt;at&lt;/span&gt;&lt;span style=&quot;color: #cccccc;&quot;&gt;::&lt;/span&gt;&lt;span style=&quot;color: #4ec9b0;&quot;&gt;Tensor&lt;/span&gt;&lt;span style=&quot;color: #cccccc;&quot;&gt; &lt;/span&gt;&lt;span style=&quot;color: #569cd6;&quot;&gt;&amp;amp;&lt;/span&gt;&lt;span style=&quot;color: #cccccc;&quot;&gt; &lt;/span&gt;&lt;span style=&quot;color: #9cdcfe;&quot;&gt;values&lt;/span&gt;&lt;span style=&quot;color: #cccccc;&quot;&gt;)&lt;/span&gt;&lt;/div&gt;&lt;/div&gt;" style="text;whiteSpace=wrap;html=1;" vertex="1" parent="WIyWlLk6GJQsqaUBKTNV-1">
          <mxGeometry x="855" y="672" width="245" height="88" as="geometry" />
        </mxCell>
        <mxCell id="_iyFBNT7TmP0TgUlfEgI-13" value="Extends" style="endArrow=block;endSize=16;endFill=0;html=1;rounded=0;exitX=0.5;exitY=0;exitDx=0;exitDy=0;entryX=1;entryY=1;entryDx=0;entryDy=0;" edge="1" parent="WIyWlLk6GJQsqaUBKTNV-1" source="_iyFBNT7TmP0TgUlfEgI-3" target="_iyFBNT7TmP0TgUlfEgI-0">
          <mxGeometry width="160" relative="1" as="geometry">
            <mxPoint x="868" y="421" as="sourcePoint" />
            <mxPoint x="1028" y="421" as="targetPoint" />
          </mxGeometry>
        </mxCell>
        <mxCell id="_iyFBNT7TmP0TgUlfEgI-14" value="Extends" style="endArrow=block;endSize=16;endFill=0;html=1;rounded=0;exitX=0.5;exitY=0;exitDx=0;exitDy=0;entryX=0.5;entryY=1;entryDx=0;entryDy=0;" edge="1" parent="WIyWlLk6GJQsqaUBKTNV-1" source="_iyFBNT7TmP0TgUlfEgI-4" target="_iyFBNT7TmP0TgUlfEgI-0">
          <mxGeometry width="160" relative="1" as="geometry">
            <mxPoint x="988" y="501" as="sourcePoint" />
            <mxPoint x="798" y="396" as="targetPoint" />
          </mxGeometry>
        </mxCell>
        <mxCell id="_iyFBNT7TmP0TgUlfEgI-15" value="Extends" style="endArrow=block;endSize=16;endFill=0;html=1;rounded=0;exitX=0.5;exitY=0;exitDx=0;exitDy=0;entryX=0;entryY=0.5;entryDx=0;entryDy=0;" edge="1" parent="WIyWlLk6GJQsqaUBKTNV-1" source="_iyFBNT7TmP0TgUlfEgI-5" target="_iyFBNT7TmP0TgUlfEgI-0">
          <mxGeometry width="160" relative="1" as="geometry">
            <mxPoint x="653" y="501" as="sourcePoint" />
            <mxPoint x="653" y="441" as="targetPoint" />
          </mxGeometry>
        </mxCell>
        <mxCell id="_iyFBNT7TmP0TgUlfEgI-16" value="&lt;div style=&quot;color: #cccccc;background-color: #1f1f1f;font-family: Consolas, &#39;Courier New&#39;, monospace;font-weight: normal;font-size: 14px;line-height: 19px;white-space: pre;&quot;&gt;&lt;div&gt;&lt;span style=&quot;color: #4ec9b0;&quot;&gt;at&lt;/span&gt;&lt;span style=&quot;color: #cccccc;&quot;&gt;::&lt;/span&gt;&lt;span style=&quot;color: #4ec9b0;&quot;&gt;Tensor&lt;/span&gt;&lt;span style=&quot;color: #cccccc;&quot;&gt; &lt;/span&gt;&lt;span style=&quot;color: #569cd6;&quot;&gt;&amp;amp;&lt;/span&gt;&lt;span style=&quot;color: #cccccc;&quot;&gt; &lt;/span&gt;&lt;/div&gt;&lt;div&gt;&lt;span style=&quot;color: #dcdcaa;&quot;&gt;wrapper_PrivateUse1_heaviside_out_out&lt;/span&gt;&lt;/div&gt;&lt;div&gt;&lt;span style=&quot;color: #cccccc;&quot;&gt;(&lt;/span&gt;&lt;span style=&quot;color: #569cd6;&quot;&gt;const&lt;/span&gt;&lt;span style=&quot;color: #cccccc;&quot;&gt; &lt;/span&gt;&lt;span style=&quot;color: #4ec9b0;&quot;&gt;at&lt;/span&gt;&lt;span style=&quot;color: #cccccc;&quot;&gt;::&lt;/span&gt;&lt;span style=&quot;color: #4ec9b0;&quot;&gt;Tensor&lt;/span&gt;&lt;span style=&quot;color: #cccccc;&quot;&gt; &lt;/span&gt;&lt;span style=&quot;color: #569cd6;&quot;&gt;&amp;amp;&lt;/span&gt;&lt;span style=&quot;color: #cccccc;&quot;&gt; &lt;/span&gt;&lt;span style=&quot;color: #9cdcfe;&quot;&gt;self&lt;/span&gt;&lt;span style=&quot;color: #cccccc;&quot;&gt;, &lt;/span&gt;&lt;/div&gt;&lt;div&gt;&lt;span style=&quot;color: #569cd6;&quot;&gt;const&lt;/span&gt;&lt;span style=&quot;color: #cccccc;&quot;&gt; &lt;/span&gt;&lt;span style=&quot;color: #4ec9b0;&quot;&gt;at&lt;/span&gt;&lt;span style=&quot;color: #cccccc;&quot;&gt;::&lt;/span&gt;&lt;span style=&quot;color: #4ec9b0;&quot;&gt;Tensor&lt;/span&gt;&lt;span style=&quot;color: #cccccc;&quot;&gt; &lt;/span&gt;&lt;span style=&quot;color: #569cd6;&quot;&gt;&amp;amp;&lt;/span&gt;&lt;span style=&quot;color: #cccccc;&quot;&gt; &lt;/span&gt;&lt;span style=&quot;color: #9cdcfe;&quot;&gt;values&lt;/span&gt;&lt;span style=&quot;color: #cccccc;&quot;&gt;, &lt;/span&gt;&lt;/div&gt;&lt;div&gt;&lt;span style=&quot;color: #4ec9b0;&quot;&gt;at&lt;/span&gt;&lt;span style=&quot;color: #cccccc;&quot;&gt;::&lt;/span&gt;&lt;span style=&quot;color: #4ec9b0;&quot;&gt;Tensor&lt;/span&gt;&lt;span style=&quot;color: #cccccc;&quot;&gt; &lt;/span&gt;&lt;span style=&quot;color: #569cd6;&quot;&gt;&amp;amp;&lt;/span&gt;&lt;span style=&quot;color: #cccccc;&quot;&gt; &lt;/span&gt;&lt;span style=&quot;color: #9cdcfe;&quot;&gt;out&lt;/span&gt;&lt;span style=&quot;color: #cccccc;&quot;&gt;)&lt;/span&gt;&lt;/div&gt;&lt;/div&gt;" style="text;whiteSpace=wrap;html=1;" vertex="1" parent="WIyWlLk6GJQsqaUBKTNV-1">
          <mxGeometry x="498" y="672" width="290" height="110" as="geometry" />
        </mxCell>
        <mxCell id="_iyFBNT7TmP0TgUlfEgI-18" value="" style="endArrow=diamondThin;endFill=0;endSize=24;html=1;rounded=0;exitX=0.5;exitY=1;exitDx=0;exitDy=0;" edge="1" parent="WIyWlLk6GJQsqaUBKTNV-1" source="_iyFBNT7TmP0TgUlfEgI-5" target="_iyFBNT7TmP0TgUlfEgI-1">
          <mxGeometry width="160" relative="1" as="geometry">
            <mxPoint x="368" y="631" as="sourcePoint" />
            <mxPoint x="528" y="631" as="targetPoint" />
          </mxGeometry>
        </mxCell>
        <mxCell id="_iyFBNT7TmP0TgUlfEgI-19" value="" style="endArrow=diamondThin;endFill=0;endSize=24;html=1;rounded=0;exitX=0.5;exitY=1;exitDx=0;exitDy=0;entryX=0.5;entryY=0;entryDx=0;entryDy=0;" edge="1" parent="WIyWlLk6GJQsqaUBKTNV-1" source="_iyFBNT7TmP0TgUlfEgI-4" target="_iyFBNT7TmP0TgUlfEgI-16">
          <mxGeometry width="160" relative="1" as="geometry">
            <mxPoint x="338" y="591" as="sourcePoint" />
            <mxPoint x="338" y="682" as="targetPoint" />
          </mxGeometry>
        </mxCell>
        <mxCell id="_iyFBNT7TmP0TgUlfEgI-20" value="" style="endArrow=diamondThin;endFill=0;endSize=24;html=1;rounded=0;exitX=0.5;exitY=1;exitDx=0;exitDy=0;entryX=0.5;entryY=0;entryDx=0;entryDy=0;" edge="1" parent="WIyWlLk6GJQsqaUBKTNV-1" source="_iyFBNT7TmP0TgUlfEgI-3" target="_iyFBNT7TmP0TgUlfEgI-8">
          <mxGeometry width="160" relative="1" as="geometry">
            <mxPoint x="348" y="601" as="sourcePoint" />
            <mxPoint x="348" y="692" as="targetPoint" />
          </mxGeometry>
        </mxCell>
        <UserObject label="&lt;div style=&quot;color: #cccccc;background-color: #1f1f1f;font-family: Consolas, &#39;Courier New&#39;, monospace;font-weight: normal;font-size: 14px;line-height: 19px;white-space: pre;&quot;&gt;&lt;div&gt;&lt;span style=&quot;color: #569cd6;&quot;&gt;ADVANCED_REGISTER&lt;/span&gt;&lt;span style=&quot;color: #cccccc;&quot;&gt;(aten, PrivateUse1, &lt;/span&gt;&lt;span style=&quot;color: #ce9178;&quot;&gt;&quot;heaviside&quot;&lt;/span&gt;&lt;span style=&quot;color: #cccccc;&quot;&gt;, &lt;/span&gt;&lt;span style=&quot;color: #dcdcaa;&quot;&gt;wrapper_PrivateUse1_heaviside&lt;/span&gt;&lt;span style=&quot;color: #cccccc;&quot;&gt;)&lt;/span&gt;&lt;/div&gt;&lt;div&gt;&lt;span style=&quot;color: #569cd6;&quot;&gt;ADVANCED_REGISTER&lt;/span&gt;&lt;span style=&quot;color: #cccccc;&quot;&gt;(aten, PrivateUse1, &lt;/span&gt;&lt;span style=&quot;color: #ce9178;&quot;&gt;&quot;heaviside.out&quot;&lt;/span&gt;&lt;span style=&quot;color: #cccccc;&quot;&gt;, &lt;/span&gt;&lt;span style=&quot;color: #dcdcaa;&quot;&gt;wrapper_PrivateUse1_heaviside_out_out&lt;/span&gt;&lt;span style=&quot;color: #cccccc;&quot;&gt;)&lt;/span&gt;&lt;/div&gt;&lt;div&gt;&lt;span style=&quot;color: #569cd6;&quot;&gt;ADVANCED_REGISTER&lt;/span&gt;&lt;span style=&quot;color: #cccccc;&quot;&gt;(aten, PrivateUse1, &lt;/span&gt;&lt;span style=&quot;color: #ce9178;&quot;&gt;&quot;heaviside_&quot;&lt;/span&gt;&lt;span style=&quot;color: #cccccc;&quot;&gt;, &lt;/span&gt;&lt;span style=&quot;color: #dcdcaa;&quot;&gt;wrapper_PrivateUse1_heaviside_&lt;/span&gt;&lt;span style=&quot;color: #cccccc;&quot;&gt;)&lt;/span&gt;&lt;/div&gt;&lt;/div&gt;" link="&lt;div style=&quot;color: #cccccc;background-color: #1f1f1f;font-family: Consolas, &#39;Courier New&#39;, monospace;font-weight: normal;font-size: 14px;line-height: 19px;white-space: pre;&quot;&gt;&lt;div&gt;&lt;span style=&quot;color: #569cd6;&quot;&gt;ADVANCED_REGISTER&lt;/span&gt;&lt;span style=&quot;color: #cccccc;&quot;&gt;(aten, PrivateUse1, &lt;/span&gt;&lt;span style=&quot;color: #ce9178;&quot;&gt;&quot;heaviside&quot;&lt;/span&gt;&lt;span style=&quot;color: #cccccc;&quot;&gt;, &lt;/span&gt;&lt;span style=&quot;color: #dcdcaa;&quot;&gt;wrapper_PrivateUse1_heaviside&lt;/span&gt;&lt;span style=&quot;color: #cccccc;&quot;&gt;)&lt;/span&gt;&lt;/div&gt;&lt;div&gt;&lt;span style=&quot;color: #569cd6;&quot;&gt;ADVANCED_REGISTER&lt;/span&gt;&lt;span style=&quot;color: #cccccc;&quot;&gt;(aten, PrivateUse1, &lt;/span&gt;&lt;span style=&quot;color: #ce9178;&quot;&gt;&quot;heaviside.out&quot;&lt;/span&gt;&lt;span style=&quot;color: #cccccc;&quot;&gt;, &lt;/span&gt;&lt;span style=&quot;color: #dcdcaa;&quot;&gt;wrapper_PrivateUse1_heaviside_out_out&lt;/span&gt;&lt;span style=&quot;color: #cccccc;&quot;&gt;)&lt;/span&gt;&lt;/div&gt;&lt;div&gt;&lt;span style=&quot;color: #569cd6;&quot;&gt;ADVANCED_REGISTER&lt;/span&gt;&lt;span style=&quot;color: #cccccc;&quot;&gt;(aten, PrivateUse1, &lt;/span&gt;&lt;span style=&quot;color: #ce9178;&quot;&gt;&quot;heaviside_&quot;&lt;/span&gt;&lt;span style=&quot;color: #cccccc;&quot;&gt;, &lt;/span&gt;&lt;span style=&quot;color: #dcdcaa;&quot;&gt;wrapper_PrivateUse1_heaviside_&lt;/span&gt;&lt;span style=&quot;color: #cccccc;&quot;&gt;)&lt;/span&gt;&lt;/div&gt;&lt;/div&gt;" id="_iyFBNT7TmP0TgUlfEgI-21">
          <mxCell style="text;whiteSpace=wrap;html=1;" vertex="1" parent="WIyWlLk6GJQsqaUBKTNV-1">
            <mxGeometry x="281.5" y="871" width="723" height="70" as="geometry" />
          </mxCell>
        </UserObject>
        <mxCell id="_iyFBNT7TmP0TgUlfEgI-22" value="&lt;div style=&quot;color: #cccccc;background-color: #1f1f1f;font-family: Consolas, &#39;Courier New&#39;, monospace;font-weight: normal;font-size: 14px;line-height: 19px;white-space: pre;&quot;&gt;&lt;div&gt;&lt;div style=&quot;line-height: 19px;&quot;&gt;&lt;span style=&quot;color: #569cd6;&quot;&gt;namespace&lt;/span&gt; at::&lt;span style=&quot;color: #4ec9b0;&quot;&gt;musa&lt;/span&gt; {&lt;/div&gt;&lt;/div&gt;&lt;div&gt;&lt;span style=&quot;color: #4ec9b0;&quot;&gt;at&lt;/span&gt;&lt;span style=&quot;color: #cccccc;&quot;&gt;::&lt;/span&gt;&lt;span style=&quot;color: #4ec9b0;&quot;&gt;Tensor&lt;/span&gt;&lt;span style=&quot;color: #cccccc;&quot;&gt; &lt;/span&gt;&lt;span style=&quot;color: #dcdcaa;&quot;&gt;heaviside&lt;/span&gt;&lt;span style=&quot;color: #cccccc;&quot;&gt;(&lt;/span&gt;&lt;span style=&quot;color: #569cd6;&quot;&gt;const&lt;/span&gt;&lt;span style=&quot;color: #cccccc;&quot;&gt; &lt;/span&gt;&lt;span style=&quot;color: #4ec9b0;&quot;&gt;at&lt;/span&gt;&lt;span style=&quot;color: #cccccc;&quot;&gt;::&lt;/span&gt;&lt;span style=&quot;color: #4ec9b0;&quot;&gt;Tensor&lt;/span&gt;&lt;span style=&quot;color: #cccccc;&quot;&gt; &lt;/span&gt;&lt;span style=&quot;color: #569cd6;&quot;&gt;&amp;amp;&lt;/span&gt;&lt;span style=&quot;color: #cccccc;&quot;&gt; &lt;/span&gt;&lt;span style=&quot;color: #9cdcfe;&quot;&gt;self&lt;/span&gt;&lt;span style=&quot;color: #cccccc;&quot;&gt;, &lt;/span&gt;&lt;span style=&quot;color: #569cd6;&quot;&gt;const&lt;/span&gt;&lt;span style=&quot;color: #cccccc;&quot;&gt; &lt;/span&gt;&lt;span style=&quot;color: #4ec9b0;&quot;&gt;at&lt;/span&gt;&lt;span style=&quot;color: #cccccc;&quot;&gt;::&lt;/span&gt;&lt;span style=&quot;color: #4ec9b0;&quot;&gt;Tensor&lt;/span&gt;&lt;span style=&quot;color: #cccccc;&quot;&gt; &lt;/span&gt;&lt;span style=&quot;color: #569cd6;&quot;&gt;&amp;amp;&lt;/span&gt;&lt;span style=&quot;color: #cccccc;&quot;&gt; &lt;/span&gt;&lt;span style=&quot;color: #9cdcfe;&quot;&gt;values&lt;/span&gt;&lt;span style=&quot;color: #cccccc;&quot;&gt;) {&lt;/span&gt;&lt;/div&gt;&lt;div&gt;&lt;span style=&quot;color: #c586c0;&quot;&gt;return&lt;/span&gt;&lt;span style=&quot;color: #cccccc;&quot;&gt; &lt;/span&gt;&lt;span style=&quot;color: #dcdcaa;&quot;&gt;wrapper_PrivateUse1_heaviside&lt;/span&gt;&lt;span style=&quot;color: #cccccc;&quot;&gt;(&lt;/span&gt;&lt;span style=&quot;color: #9cdcfe;&quot;&gt;self&lt;/span&gt;&lt;span style=&quot;color: #cccccc;&quot;&gt;, &lt;/span&gt;&lt;span style=&quot;color: #9cdcfe;&quot;&gt;values&lt;/span&gt;&lt;span style=&quot;color: #cccccc;&quot;&gt;);&lt;/span&gt;&lt;/div&gt;&lt;div&gt;&lt;span style=&quot;color: #cccccc;&quot;&gt;}&lt;/span&gt;&lt;/div&gt;&lt;div&gt;&lt;span style=&quot;color: #4ec9b0;&quot;&gt;at&lt;/span&gt;&lt;span style=&quot;color: #cccccc;&quot;&gt;::&lt;/span&gt;&lt;span style=&quot;color: #4ec9b0;&quot;&gt;Tensor&lt;/span&gt;&lt;span style=&quot;color: #cccccc;&quot;&gt; &lt;/span&gt;&lt;span style=&quot;color: #569cd6;&quot;&gt;&amp;amp;&lt;/span&gt;&lt;span style=&quot;color: #cccccc;&quot;&gt; &lt;/span&gt;&lt;span style=&quot;color: #dcdcaa;&quot;&gt;heaviside_out&lt;/span&gt;&lt;span style=&quot;color: #cccccc;&quot;&gt;(&lt;/span&gt;&lt;span style=&quot;color: #4ec9b0;&quot;&gt;at&lt;/span&gt;&lt;span style=&quot;color: #cccccc;&quot;&gt;::&lt;/span&gt;&lt;span style=&quot;color: #4ec9b0;&quot;&gt;Tensor&lt;/span&gt;&lt;span style=&quot;color: #cccccc;&quot;&gt; &lt;/span&gt;&lt;span style=&quot;color: #569cd6;&quot;&gt;&amp;amp;&lt;/span&gt;&lt;span style=&quot;color: #cccccc;&quot;&gt; &lt;/span&gt;&lt;span style=&quot;color: #9cdcfe;&quot;&gt;out&lt;/span&gt;&lt;span style=&quot;color: #cccccc;&quot;&gt;, &lt;/span&gt;&lt;span style=&quot;color: #569cd6;&quot;&gt;const&lt;/span&gt;&lt;span style=&quot;color: #cccccc;&quot;&gt; &lt;/span&gt;&lt;span style=&quot;color: #4ec9b0;&quot;&gt;at&lt;/span&gt;&lt;span style=&quot;color: #cccccc;&quot;&gt;::&lt;/span&gt;&lt;span style=&quot;color: #4ec9b0;&quot;&gt;Tensor&lt;/span&gt;&lt;span style=&quot;color: #cccccc;&quot;&gt; &lt;/span&gt;&lt;span style=&quot;color: #569cd6;&quot;&gt;&amp;amp;&lt;/span&gt;&lt;span style=&quot;color: #cccccc;&quot;&gt; &lt;/span&gt;&lt;span style=&quot;color: #9cdcfe;&quot;&gt;self&lt;/span&gt;&lt;span style=&quot;color: #cccccc;&quot;&gt;, &lt;/span&gt;&lt;span style=&quot;color: #569cd6;&quot;&gt;const&lt;/span&gt;&lt;span style=&quot;color: #cccccc;&quot;&gt; &lt;/span&gt;&lt;span style=&quot;color: #4ec9b0;&quot;&gt;at&lt;/span&gt;&lt;span style=&quot;color: #cccccc;&quot;&gt;::&lt;/span&gt;&lt;span style=&quot;color: #4ec9b0;&quot;&gt;Tensor&lt;/span&gt;&lt;span style=&quot;color: #cccccc;&quot;&gt; &lt;/span&gt;&lt;span style=&quot;color: #569cd6;&quot;&gt;&amp;amp;&lt;/span&gt;&lt;span style=&quot;color: #cccccc;&quot;&gt; &lt;/span&gt;&lt;span style=&quot;color: #9cdcfe;&quot;&gt;values&lt;/span&gt;&lt;span style=&quot;color: #cccccc;&quot;&gt;) {&lt;/span&gt;&lt;/div&gt;&lt;div&gt;&lt;span style=&quot;color: #c586c0;&quot;&gt;return&lt;/span&gt;&lt;span style=&quot;color: #cccccc;&quot;&gt; &lt;/span&gt;&lt;span style=&quot;color: #dcdcaa;&quot;&gt;wrapper_PrivateUse1_heaviside_out_out&lt;/span&gt;&lt;span style=&quot;color: #cccccc;&quot;&gt;(&lt;/span&gt;&lt;span style=&quot;color: #9cdcfe;&quot;&gt;self&lt;/span&gt;&lt;span style=&quot;color: #cccccc;&quot;&gt;, &lt;/span&gt;&lt;span style=&quot;color: #9cdcfe;&quot;&gt;values&lt;/span&gt;&lt;span style=&quot;color: #cccccc;&quot;&gt;, &lt;/span&gt;&lt;span style=&quot;color: #9cdcfe;&quot;&gt;out&lt;/span&gt;&lt;span style=&quot;color: #cccccc;&quot;&gt;);&lt;/span&gt;&lt;/div&gt;&lt;div&gt;&lt;span style=&quot;color: #cccccc;&quot;&gt;}&lt;/span&gt;&lt;/div&gt;&lt;div&gt;&lt;span style=&quot;color: #4ec9b0;&quot;&gt;at&lt;/span&gt;&lt;span style=&quot;color: #cccccc;&quot;&gt;::&lt;/span&gt;&lt;span style=&quot;color: #4ec9b0;&quot;&gt;Tensor&lt;/span&gt;&lt;span style=&quot;color: #cccccc;&quot;&gt; &lt;/span&gt;&lt;span style=&quot;color: #569cd6;&quot;&gt;&amp;amp;&lt;/span&gt;&lt;span style=&quot;color: #cccccc;&quot;&gt; &lt;/span&gt;&lt;span style=&quot;color: #dcdcaa;&quot;&gt;heaviside_outf&lt;/span&gt;&lt;span style=&quot;color: #cccccc;&quot;&gt;(&lt;/span&gt;&lt;span style=&quot;color: #569cd6;&quot;&gt;const&lt;/span&gt;&lt;span style=&quot;color: #cccccc;&quot;&gt; &lt;/span&gt;&lt;span style=&quot;color: #4ec9b0;&quot;&gt;at&lt;/span&gt;&lt;span style=&quot;color: #cccccc;&quot;&gt;::&lt;/span&gt;&lt;span style=&quot;color: #4ec9b0;&quot;&gt;Tensor&lt;/span&gt;&lt;span style=&quot;color: #cccccc;&quot;&gt; &lt;/span&gt;&lt;span style=&quot;color: #569cd6;&quot;&gt;&amp;amp;&lt;/span&gt;&lt;span style=&quot;color: #cccccc;&quot;&gt; &lt;/span&gt;&lt;span style=&quot;color: #9cdcfe;&quot;&gt;self&lt;/span&gt;&lt;span style=&quot;color: #cccccc;&quot;&gt;, &lt;/span&gt;&lt;span style=&quot;color: #569cd6;&quot;&gt;const&lt;/span&gt;&lt;span style=&quot;color: #cccccc;&quot;&gt; &lt;/span&gt;&lt;span style=&quot;color: #4ec9b0;&quot;&gt;at&lt;/span&gt;&lt;span style=&quot;color: #cccccc;&quot;&gt;::&lt;/span&gt;&lt;span style=&quot;color: #4ec9b0;&quot;&gt;Tensor&lt;/span&gt;&lt;span style=&quot;color: #cccccc;&quot;&gt; &lt;/span&gt;&lt;span style=&quot;color: #569cd6;&quot;&gt;&amp;amp;&lt;/span&gt;&lt;span style=&quot;color: #cccccc;&quot;&gt; &lt;/span&gt;&lt;span style=&quot;color: #9cdcfe;&quot;&gt;values&lt;/span&gt;&lt;span style=&quot;color: #cccccc;&quot;&gt;, &lt;/span&gt;&lt;span style=&quot;color: #4ec9b0;&quot;&gt;at&lt;/span&gt;&lt;span style=&quot;color: #cccccc;&quot;&gt;::&lt;/span&gt;&lt;span style=&quot;color: #4ec9b0;&quot;&gt;Tensor&lt;/span&gt;&lt;span style=&quot;color: #cccccc;&quot;&gt; &lt;/span&gt;&lt;span style=&quot;color: #569cd6;&quot;&gt;&amp;amp;&lt;/span&gt;&lt;span style=&quot;color: #cccccc;&quot;&gt; &lt;/span&gt;&lt;span style=&quot;color: #9cdcfe;&quot;&gt;out&lt;/span&gt;&lt;span style=&quot;color: #cccccc;&quot;&gt;) {&lt;/span&gt;&lt;/div&gt;&lt;div&gt;&lt;span style=&quot;color: #c586c0;&quot;&gt;return&lt;/span&gt;&lt;span style=&quot;color: #cccccc;&quot;&gt; &lt;/span&gt;&lt;span style=&quot;color: #dcdcaa;&quot;&gt;wrapper_PrivateUse1_heaviside_out_out&lt;/span&gt;&lt;span style=&quot;color: #cccccc;&quot;&gt;(&lt;/span&gt;&lt;span style=&quot;color: #9cdcfe;&quot;&gt;self&lt;/span&gt;&lt;span style=&quot;color: #cccccc;&quot;&gt;, &lt;/span&gt;&lt;span style=&quot;color: #9cdcfe;&quot;&gt;values&lt;/span&gt;&lt;span style=&quot;color: #cccccc;&quot;&gt;, &lt;/span&gt;&lt;span style=&quot;color: #9cdcfe;&quot;&gt;out&lt;/span&gt;&lt;span style=&quot;color: #cccccc;&quot;&gt;);&lt;/span&gt;&lt;/div&gt;&lt;div&gt;&lt;span style=&quot;color: #cccccc;&quot;&gt;}&lt;/span&gt;&lt;/div&gt;&lt;div&gt;&lt;span style=&quot;color: #4ec9b0;&quot;&gt;at&lt;/span&gt;&lt;span style=&quot;color: #cccccc;&quot;&gt;::&lt;/span&gt;&lt;span style=&quot;color: #4ec9b0;&quot;&gt;Tensor&lt;/span&gt;&lt;span style=&quot;color: #cccccc;&quot;&gt; &lt;/span&gt;&lt;span style=&quot;color: #569cd6;&quot;&gt;&amp;amp;&lt;/span&gt;&lt;span style=&quot;color: #cccccc;&quot;&gt; &lt;/span&gt;&lt;span style=&quot;color: #dcdcaa;&quot;&gt;heaviside_&lt;/span&gt;&lt;span style=&quot;color: #cccccc;&quot;&gt;(&lt;/span&gt;&lt;span style=&quot;color: #4ec9b0;&quot;&gt;at&lt;/span&gt;&lt;span style=&quot;color: #cccccc;&quot;&gt;::&lt;/span&gt;&lt;span style=&quot;color: #4ec9b0;&quot;&gt;Tensor&lt;/span&gt;&lt;span style=&quot;color: #cccccc;&quot;&gt; &lt;/span&gt;&lt;span style=&quot;color: #569cd6;&quot;&gt;&amp;amp;&lt;/span&gt;&lt;span style=&quot;color: #cccccc;&quot;&gt; &lt;/span&gt;&lt;span style=&quot;color: #9cdcfe;&quot;&gt;self&lt;/span&gt;&lt;span style=&quot;color: #cccccc;&quot;&gt;, &lt;/span&gt;&lt;span style=&quot;color: #569cd6;&quot;&gt;const&lt;/span&gt;&lt;span style=&quot;color: #cccccc;&quot;&gt; &lt;/span&gt;&lt;span style=&quot;color: #4ec9b0;&quot;&gt;at&lt;/span&gt;&lt;span style=&quot;color: #cccccc;&quot;&gt;::&lt;/span&gt;&lt;span style=&quot;color: #4ec9b0;&quot;&gt;Tensor&lt;/span&gt;&lt;span style=&quot;color: #cccccc;&quot;&gt; &lt;/span&gt;&lt;span style=&quot;color: #569cd6;&quot;&gt;&amp;amp;&lt;/span&gt;&lt;span style=&quot;color: #cccccc;&quot;&gt; &lt;/span&gt;&lt;span style=&quot;color: #9cdcfe;&quot;&gt;values&lt;/span&gt;&lt;span style=&quot;color: #cccccc;&quot;&gt;) {&lt;/span&gt;&lt;/div&gt;&lt;div&gt;&lt;span style=&quot;color: #c586c0;&quot;&gt;return&lt;/span&gt;&lt;span style=&quot;color: #cccccc;&quot;&gt; &lt;/span&gt;&lt;span style=&quot;color: #dcdcaa;&quot;&gt;wrapper_PrivateUse1_heaviside_&lt;/span&gt;&lt;span style=&quot;color: #cccccc;&quot;&gt;(&lt;/span&gt;&lt;span style=&quot;color: #9cdcfe;&quot;&gt;self&lt;/span&gt;&lt;span style=&quot;color: #cccccc;&quot;&gt;, &lt;/span&gt;&lt;span style=&quot;color: #9cdcfe;&quot;&gt;values&lt;/span&gt;&lt;span style=&quot;color: #cccccc;&quot;&gt;);&lt;/span&gt;&lt;/div&gt;&lt;div&gt;&lt;span style=&quot;color: #cccccc;&quot;&gt;}&lt;/span&gt;&lt;/div&gt;&lt;div&gt;} // &lt;span style=&quot;color: rgb(86, 156, 214);&quot;&gt;namespace&lt;/span&gt; musa&lt;/div&gt;&lt;div&gt;} // &lt;span style=&quot;color: rgb(86, 156, 214);&quot;&gt;namespace&lt;/span&gt; at&lt;/div&gt;&lt;/div&gt;" style="text;whiteSpace=wrap;html=1;" vertex="1" parent="WIyWlLk6GJQsqaUBKTNV-1">
          <mxGeometry x="258" y="1011" width="760" height="300" as="geometry" />
        </mxCell>
        <mxCell id="_iyFBNT7TmP0TgUlfEgI-24" value="register" style="endArrow=open;endSize=12;dashed=1;html=1;rounded=0;exitX=0.5;exitY=1;exitDx=0;exitDy=0;entryX=0.25;entryY=0;entryDx=0;entryDy=0;" edge="1" parent="WIyWlLk6GJQsqaUBKTNV-1" source="_iyFBNT7TmP0TgUlfEgI-1" target="_iyFBNT7TmP0TgUlfEgI-21">
          <mxGeometry width="160" relative="1" as="geometry">
            <mxPoint x="343" y="801" as="sourcePoint" />
            <mxPoint x="503" y="801" as="targetPoint" />
          </mxGeometry>
        </mxCell>
        <mxCell id="_iyFBNT7TmP0TgUlfEgI-25" value="register" style="endArrow=open;endSize=12;dashed=1;html=1;rounded=0;exitX=0.5;exitY=1;exitDx=0;exitDy=0;entryX=0.5;entryY=0;entryDx=0;entryDy=0;" edge="1" parent="WIyWlLk6GJQsqaUBKTNV-1" source="_iyFBNT7TmP0TgUlfEgI-16" target="_iyFBNT7TmP0TgUlfEgI-21">
          <mxGeometry width="160" relative="1" as="geometry">
            <mxPoint x="633" y="811" as="sourcePoint" />
            <mxPoint x="781" y="920" as="targetPoint" />
          </mxGeometry>
        </mxCell>
        <mxCell id="_iyFBNT7TmP0TgUlfEgI-26" value="register" style="endArrow=open;endSize=12;dashed=1;html=1;rounded=0;exitX=0.5;exitY=1;exitDx=0;exitDy=0;entryX=0.75;entryY=0;entryDx=0;entryDy=0;" edge="1" parent="WIyWlLk6GJQsqaUBKTNV-1" source="_iyFBNT7TmP0TgUlfEgI-8" target="_iyFBNT7TmP0TgUlfEgI-21">
          <mxGeometry width="160" relative="1" as="geometry">
            <mxPoint x="980" y="801" as="sourcePoint" />
            <mxPoint x="1128" y="910" as="targetPoint" />
          </mxGeometry>
        </mxCell>
        <mxCell id="_iyFBNT7TmP0TgUlfEgI-27" value="musa API" style="endArrow=open;endSize=12;dashed=1;html=1;rounded=0;exitX=1;exitY=1;exitDx=0;exitDy=0;entryX=1;entryY=0;entryDx=0;entryDy=0;" edge="1" parent="WIyWlLk6GJQsqaUBKTNV-1" source="_iyFBNT7TmP0TgUlfEgI-8" target="_iyFBNT7TmP0TgUlfEgI-22">
          <mxGeometry x="-0.0002" width="160" relative="1" as="geometry">
            <mxPoint x="1073" y="991" as="sourcePoint" />
            <mxPoint x="1233" y="991" as="targetPoint" />
            <mxPoint as="offset" />
          </mxGeometry>
        </mxCell>
        <mxCell id="_iyFBNT7TmP0TgUlfEgI-28" value="musa API" style="endArrow=open;endSize=12;dashed=1;html=1;rounded=0;exitX=0;exitY=1;exitDx=0;exitDy=0;entryX=0;entryY=0;entryDx=0;entryDy=0;" edge="1" parent="WIyWlLk6GJQsqaUBKTNV-1" source="_iyFBNT7TmP0TgUlfEgI-1" target="_iyFBNT7TmP0TgUlfEgI-22">
          <mxGeometry x="-0.0002" width="160" relative="1" as="geometry">
            <mxPoint x="235" y="791" as="sourcePoint" />
            <mxPoint x="153" y="1042" as="targetPoint" />
            <mxPoint as="offset" />
          </mxGeometry>
        </mxCell>
        <mxCell id="_iyFBNT7TmP0TgUlfEgI-30" value="&lt;div style=&quot;color: rgb(204, 204, 204); background-color: rgb(31, 31, 31); font-family: Consolas, &amp;quot;Courier New&amp;quot;, monospace; font-size: 14px; line-height: 19px; white-space: pre;&quot;&gt;&lt;span style=&quot;color: #4ec9b0;&quot;&gt;at&lt;/span&gt;::&lt;span style=&quot;color: rgb(86, 156, 214);&quot;&gt;struct&lt;/span&gt; &lt;span style=&quot;color: rgb(86, 156, 214);&quot;&gt;TORCH_API&lt;/span&gt; &lt;span style=&quot;color: rgb(78, 201, 176);&quot;&gt;TensorIteratorBase&lt;/span&gt; &lt;br&gt;&lt;/div&gt;&lt;p style=&quot;margin:0px;margin-left:4px;&quot;&gt;&lt;br&gt;&lt;/p&gt;" style="verticalAlign=top;align=left;overflow=fill;html=1;whiteSpace=wrap;" vertex="1" parent="WIyWlLk6GJQsqaUBKTNV-1">
          <mxGeometry x="480.5" y="80" width="325" height="30" as="geometry" />
        </mxCell>
        <mxCell id="_iyFBNT7TmP0TgUlfEgI-31" value="&lt;div style=&quot;background-color: rgb(31, 31, 31); font-family: Consolas, &amp;quot;Courier New&amp;quot;, monospace; font-size: 14px; line-height: 19px; white-space: pre;&quot;&gt;&lt;span style=&quot;color: rgb(204, 204, 204);&quot;&gt;&lt;span style=&quot;color: #4ec9b0;&quot;&gt;at&lt;/span&gt;::&lt;/span&gt;&lt;font color=&quot;#4ec9b0&quot;&gt;meta&lt;/font&gt;&lt;font color=&quot;#cccccc&quot;&gt;::&lt;/font&gt;&lt;span style=&quot;color: rgb(86, 156, 214);&quot;&gt;struct&lt;/span&gt;&lt;font color=&quot;#cccccc&quot;&gt; &lt;/font&gt;&lt;span style=&quot;color: rgb(86, 156, 214);&quot;&gt;TORCH_API&lt;/span&gt;&lt;font color=&quot;#cccccc&quot;&gt; &lt;/font&gt;&lt;span style=&quot;color: rgb(78, 201, 176);&quot;&gt;structured_heaviside&lt;/span&gt;&lt;/div&gt;&lt;hr size=&quot;1&quot; style=&quot;border-style:solid;&quot;&gt;&lt;div style=&quot;color: rgb(204, 204, 204); background-color: rgb(31, 31, 31); font-family: Consolas, &amp;quot;Courier New&amp;quot;, monospace; font-size: 14px; line-height: 19px; white-space: pre;&quot;&gt;&lt;span style=&quot;color: #569cd6;&quot;&gt;void&lt;/span&gt; &lt;span style=&quot;color: #dcdcaa;&quot;&gt;meta&lt;/span&gt;(&lt;span style=&quot;color: #569cd6;&quot;&gt;const&lt;/span&gt; &lt;span style=&quot;color: #4ec9b0;&quot;&gt;at&lt;/span&gt;::&lt;span style=&quot;color: #4ec9b0;&quot;&gt;Tensor&lt;/span&gt; &lt;span style=&quot;color: #569cd6;&quot;&gt;&amp;amp;&lt;/span&gt; &lt;span style=&quot;color: #9cdcfe;&quot;&gt;self&lt;/span&gt;, &lt;span style=&quot;color: #569cd6;&quot;&gt;const&lt;/span&gt; &lt;span style=&quot;color: #4ec9b0;&quot;&gt;at&lt;/span&gt;::&lt;span style=&quot;color: #4ec9b0;&quot;&gt;Tensor&lt;/span&gt; &lt;span style=&quot;color: #569cd6;&quot;&gt;&amp;amp;&lt;/span&gt; &lt;span style=&quot;color: #9cdcfe;&quot;&gt;values&lt;/span&gt;);&lt;/div&gt;" style="verticalAlign=top;align=left;overflow=fill;html=1;whiteSpace=wrap;" vertex="1" parent="WIyWlLk6GJQsqaUBKTNV-1">
          <mxGeometry x="398" y="200" width="490" height="60" as="geometry" />
        </mxCell>
        <mxCell id="_iyFBNT7TmP0TgUlfEgI-34" value="Extends" style="endArrow=block;endSize=16;endFill=0;html=1;rounded=0;exitX=0.5;exitY=0;exitDx=0;exitDy=0;entryX=0.5;entryY=1;entryDx=0;entryDy=0;" edge="1" parent="WIyWlLk6GJQsqaUBKTNV-1" source="_iyFBNT7TmP0TgUlfEgI-31" target="_iyFBNT7TmP0TgUlfEgI-30">
          <mxGeometry width="160" relative="1" as="geometry">
            <mxPoint x="684" y="130" as="sourcePoint" />
            <mxPoint x="844" y="130" as="targetPoint" />
          </mxGeometry>
        </mxCell>
        <mxCell id="_iyFBNT7TmP0TgUlfEgI-35" value="Extends" style="endArrow=block;endSize=16;endFill=0;html=1;rounded=0;exitX=0.5;exitY=0;exitDx=0;exitDy=0;" edge="1" parent="WIyWlLk6GJQsqaUBKTNV-1" source="_iyFBNT7TmP0TgUlfEgI-0" target="_iyFBNT7TmP0TgUlfEgI-31">
          <mxGeometry width="160" relative="1" as="geometry">
            <mxPoint x="661.5" y="280" as="sourcePoint" />
            <mxPoint x="894" y="250" as="targetPoint" />
          </mxGeometry>
        </mxCell>
        <mxCell id="_iyFBNT7TmP0TgUlfEgI-39" value="&lt;font color=&quot;#cc0000&quot;&gt;&lt;span style=&quot;font-size: 14px;&quot;&gt;&lt;b&gt;impl 内会调度到 DispatchStub&lt;/b&gt;&lt;/span&gt;&lt;/font&gt;" style="text;html=1;align=center;verticalAlign=middle;whiteSpace=wrap;rounded=0;" vertex="1" parent="WIyWlLk6GJQsqaUBKTNV-1">
          <mxGeometry x="828" y="350" width="262" height="30" as="geometry" />
        </mxCell>
        <mxCell id="_iyFBNT7TmP0TgUlfEgI-47" style="edgeStyle=orthogonalEdgeStyle;rounded=0;orthogonalLoop=1;jettySize=auto;html=1;" edge="1" parent="WIyWlLk6GJQsqaUBKTNV-1" source="_iyFBNT7TmP0TgUlfEgI-42" target="_iyFBNT7TmP0TgUlfEgI-45">
          <mxGeometry relative="1" as="geometry" />
        </mxCell>
        <mxCell id="_iyFBNT7TmP0TgUlfEgI-42" value="&lt;div style=&quot;background-color: rgb(31, 31, 31); font-family: Consolas, &amp;quot;Courier New&amp;quot;, monospace; font-weight: normal; font-size: 14px; line-height: 19px; white-space: pre;&quot;&gt;&lt;div style=&quot;&quot;&gt;&lt;font color=&quot;#569cd6&quot;&gt;// BinaryOp.cpp&lt;/font&gt;&lt;/div&gt;&lt;div style=&quot;color: rgb(204, 204, 204);&quot;&gt;&lt;span style=&quot;color: #569cd6;&quot;&gt;at::impl::TORCH_IMPL_FUNC&lt;/span&gt;&lt;span style=&quot;color: #cccccc;&quot;&gt;(heaviside_out) (&lt;/span&gt;&lt;/div&gt;&lt;div style=&quot;color: rgb(204, 204, 204);&quot;&gt;&lt;span style=&quot;color: #cccccc;&quot;&gt;&amp;nbsp; &lt;/span&gt;&lt;span style=&quot;color: #569cd6;&quot;&gt;const&lt;/span&gt;&lt;span style=&quot;color: #cccccc;&quot;&gt; Tensor&lt;/span&gt;&lt;span style=&quot;color: #d4d4d4;&quot;&gt;&amp;amp;&lt;/span&gt;&lt;span style=&quot;color: #cccccc;&quot;&gt; self, &lt;/span&gt;&lt;span style=&quot;color: rgb(86, 156, 214);&quot;&gt;const&lt;/span&gt; Tensor&lt;span style=&quot;color: rgb(212, 212, 212);&quot;&gt;&amp;amp;&lt;/span&gt; other, &lt;/div&gt;&lt;div style=&quot;color: rgb(204, 204, 204);&quot;&gt;&lt;span style=&quot;color: #569cd6;&quot;&gt;  const&lt;/span&gt;&lt;span style=&quot;color: #cccccc;&quot;&gt; Tensor&lt;/span&gt;&lt;span style=&quot;color: #d4d4d4;&quot;&gt;&amp;amp;&lt;/span&gt;&lt;span style=&quot;color: #cccccc;&quot;&gt; result&lt;/span&gt;&lt;/div&gt;&lt;div style=&quot;color: rgb(204, 204, 204);&quot;&gt;&lt;span style=&quot;color: #cccccc;&quot;&gt;) {&lt;/span&gt;&lt;/div&gt;&lt;div style=&quot;color: rgb(204, 204, 204);&quot;&gt;&lt;span style=&quot;color: #cccccc;&quot;&gt;&amp;nbsp; &lt;/span&gt;&lt;span style=&quot;color: #dcdcaa;&quot;&gt;heaviside_stub&lt;/span&gt;&lt;span style=&quot;color: #cccccc;&quot;&gt;(&lt;/span&gt;&lt;span style=&quot;color: #dcdcaa;&quot;&gt;device_type&lt;/span&gt;&lt;span style=&quot;color: #cccccc;&quot;&gt;(), &lt;/span&gt;&lt;span style=&quot;color: #d4d4d4;&quot;&gt;*&lt;/span&gt;&lt;span style=&quot;color: #569cd6;&quot;&gt;this&lt;/span&gt;&lt;span style=&quot;color: #cccccc;&quot;&gt;);&lt;/span&gt;&lt;/div&gt;&lt;div style=&quot;color: rgb(204, 204, 204);&quot;&gt;&lt;span style=&quot;color: #cccccc;&quot;&gt;}&lt;/span&gt;&lt;/div&gt;&lt;/div&gt;" style="text;whiteSpace=wrap;html=1;" vertex="1" parent="WIyWlLk6GJQsqaUBKTNV-1">
          <mxGeometry x="1230" y="314" width="330" height="144" as="geometry" />
        </mxCell>
        <UserObject label="&lt;div style=&quot;color: #cccccc;background-color: #1f1f1f;font-family: Consolas, &#39;Courier New&#39;, monospace;font-weight: normal;font-size: 14px;line-height: 19px;white-space: pre;&quot;&gt;&lt;div&gt;&lt;span style=&quot;color: #6a9955;&quot;&gt;// In native/MyKernel.h:&lt;/span&gt;&lt;/div&gt;&lt;div&gt;&lt;span style=&quot;color: #6a9955;&quot;&gt;// &amp;nbsp; using fn_type = void(*)(const Tensor&amp;amp; x);&lt;/span&gt;&lt;/div&gt;&lt;div&gt;&lt;span style=&quot;color: #6a9955;&quot;&gt;// &amp;nbsp; DECLARE_DISPATCH(fn_type, stub);&lt;/span&gt;&lt;/div&gt;&lt;div&gt;&lt;span style=&quot;color: #6a9955;&quot;&gt;//&lt;/span&gt;&lt;/div&gt;&lt;div&gt;&lt;span style=&quot;color: #6a9955;&quot;&gt;// In native/MyKernel.cpp&lt;/span&gt;&lt;/div&gt;&lt;div&gt;&lt;span style=&quot;color: #6a9955;&quot;&gt;// &amp;nbsp; DEFINE_DISPATCH(stub);&lt;/span&gt;&lt;/div&gt;&lt;div&gt;&lt;span style=&quot;color: #6a9955;&quot;&gt;//&lt;/span&gt;&lt;/div&gt;&lt;div&gt;&lt;span style=&quot;color: #6a9955;&quot;&gt;// In native/cpu/MyKernel.cpp:&lt;/span&gt;&lt;/div&gt;&lt;div&gt;&lt;span style=&quot;color: #6a9955;&quot;&gt;// &amp;nbsp; namespace {&lt;/span&gt;&lt;/div&gt;&lt;div&gt;&lt;span style=&quot;color: #6a9955;&quot;&gt;// &amp;nbsp; &amp;nbsp; // use anonymous namespace so that different cpu &lt;/span&gt;&lt;/div&gt;&lt;div&gt;&lt;span style=&quot;color: #6a9955;&quot;&gt;//     // versions won&#39;t conflict&lt;/span&gt;&lt;/div&gt;&lt;div&gt;&lt;span style=&quot;color: #6a9955;&quot;&gt;// &amp;nbsp; &amp;nbsp; void kernel(const Tensor&amp;amp; x) { ... }&lt;/span&gt;&lt;/div&gt;&lt;div&gt;&lt;span style=&quot;color: #6a9955;&quot;&gt;// &amp;nbsp; }&lt;/span&gt;&lt;/div&gt;&lt;div&gt;&lt;span style=&quot;color: #6a9955;&quot;&gt;// &amp;nbsp; REGISTER_DISPATCH(stub, &amp;amp;kernel);&lt;/span&gt;&lt;/div&gt;&lt;/div&gt;" link="&lt;div style=&quot;color: #cccccc;background-color: #1f1f1f;font-family: Consolas, &#39;Courier New&#39;, monospace;font-weight: normal;font-size: 14px;line-height: 19px;white-space: pre;&quot;&gt;&lt;div&gt;&lt;span style=&quot;color: #6a9955;&quot;&gt;// In native/MyKernel.h:&lt;/span&gt;&lt;/div&gt;&lt;div&gt;&lt;span style=&quot;color: #6a9955;&quot;&gt;// &amp;nbsp; using fn_type = void(*)(const Tensor&amp;amp; x);&lt;/span&gt;&lt;/div&gt;&lt;div&gt;&lt;span style=&quot;color: #6a9955;&quot;&gt;// &amp;nbsp; DECLARE_DISPATCH(fn_type, stub);&lt;/span&gt;&lt;/div&gt;&lt;div&gt;&lt;span style=&quot;color: #6a9955;&quot;&gt;//&lt;/span&gt;&lt;/div&gt;&lt;div&gt;&lt;span style=&quot;color: #6a9955;&quot;&gt;// In native/MyKernel.cpp&lt;/span&gt;&lt;/div&gt;&lt;div&gt;&lt;span style=&quot;color: #6a9955;&quot;&gt;// &amp;nbsp; DEFINE_DISPATCH(stub);&lt;/span&gt;&lt;/div&gt;&lt;div&gt;&lt;span style=&quot;color: #6a9955;&quot;&gt;//&lt;/span&gt;&lt;/div&gt;&lt;div&gt;&lt;span style=&quot;color: #6a9955;&quot;&gt;// In native/cpu/MyKernel.cpp:&lt;/span&gt;&lt;/div&gt;&lt;div&gt;&lt;span style=&quot;color: #6a9955;&quot;&gt;// &amp;nbsp; namespace {&lt;/span&gt;&lt;/div&gt;&lt;div&gt;&lt;span style=&quot;color: #6a9955;&quot;&gt;// &amp;nbsp; &amp;nbsp; // use anonymous namespace so that different cpu versions won&#39;t conflict&lt;/span&gt;&lt;/div&gt;&lt;div&gt;&lt;span style=&quot;color: #6a9955;&quot;&gt;// &amp;nbsp; &amp;nbsp; void kernel(const Tensor&amp;amp; x) { ... }&lt;/span&gt;&lt;/div&gt;&lt;div&gt;&lt;span style=&quot;color: #6a9955;&quot;&gt;// &amp;nbsp; }&lt;/span&gt;&lt;/div&gt;&lt;div&gt;&lt;span style=&quot;color: #6a9955;&quot;&gt;// &amp;nbsp; REGISTER_DISPATCH(stub, &amp;amp;kernel);&lt;/span&gt;&lt;/div&gt;&lt;/div&gt;" id="_iyFBNT7TmP0TgUlfEgI-45">
          <mxCell style="text;whiteSpace=wrap;html=1;" vertex="1" parent="WIyWlLk6GJQsqaUBKTNV-1">
            <mxGeometry x="1175" y="672" width="440" height="280" as="geometry" />
          </mxCell>
        </UserObject>
        <mxCell id="_iyFBNT7TmP0TgUlfEgI-46" value="&lt;font style=&quot;font-size: 14px;&quot; color=&quot;#cc0000&quot;&gt;&lt;b&gt;stub 三步骤：heaviside 声明、定义和注册&lt;/b&gt;&lt;/font&gt;" style="text;html=1;align=center;verticalAlign=middle;whiteSpace=wrap;rounded=0;" vertex="1" parent="WIyWlLk6GJQsqaUBKTNV-1">
          <mxGeometry x="1260" y="981" width="290" height="30" as="geometry" />
        </mxCell>
        <mxCell id="_iyFBNT7TmP0TgUlfEgI-48" value="&lt;b style=&quot;forced-color-adjust: none; color: rgb(204, 0, 0); font-family: Helvetica; font-size: 14px; font-style: normal; font-variant-ligatures: normal; font-variant-caps: normal; letter-spacing: normal; orphans: 2; text-align: center; text-indent: 0px; text-transform: none; widows: 2; word-spacing: 0px; -webkit-text-stroke-width: 0px; white-space: normal; background-color: rgb(251, 251, 251); text-decoration-thickness: initial; text-decoration-style: initial; text-decoration-color: initial;&quot;&gt;DispatchStub&lt;/b&gt;" style="text;whiteSpace=wrap;html=1;" vertex="1" parent="WIyWlLk6GJQsqaUBKTNV-1">
          <mxGeometry x="1360" y="190" width="105" height="30" as="geometry" />
        </mxCell>
        <mxCell id="_iyFBNT7TmP0TgUlfEgI-49" value="&lt;b style=&quot;forced-color-adjust: none; color: rgb(204, 0, 0); font-family: Helvetica; font-size: 14px; font-style: normal; font-variant-ligatures: normal; font-variant-caps: normal; letter-spacing: normal; orphans: 2; text-align: center; text-indent: 0px; text-transform: none; widows: 2; word-spacing: 0px; -webkit-text-stroke-width: 0px; white-space: normal; background-color: rgb(251, 251, 251); text-decoration-thickness: initial; text-decoration-style: initial; text-decoration-color: initial;&quot;&gt;Dispatch Mechnism&lt;/b&gt;" style="text;whiteSpace=wrap;html=1;" vertex="1" parent="WIyWlLk6GJQsqaUBKTNV-1">
          <mxGeometry x="563" y="30" width="150" height="30" as="geometry" />
        </mxCell>
      </root>
    </mxGraphModel>
  </diagram>
</mxfile>
